<svg id="visual" viewBox="0 0 900 600" width="900" height="600" xmlns="http://www.w3.org/2000/svg" xmlns:xlink="http://www.w3.org/1999/xlink" version="1.1"><g transform="translate(457.3038939925098 272.62880488528424)"><path d="M131.9 -172.6C170.1 -153.7 199.6 -114.1 217 -68.6C234.3 -23.2 239.3 28.1 230.5 81C221.7 133.8 199 188.3 158.3 220.5C117.6 252.8 58.8 262.9 1.5 260.9C-55.8 258.9 -111.7 244.7 -149.7 211.6C-187.8 178.4 -208 126.3 -225.1 73.2C-242.2 20.2 -256.2 -33.8 -245.8 -84.3C-235.5 -134.8 -200.9 -181.9 -155.9 -198.5C-110.9 -215.1 -55.4 -201.3 -4.3 -195.4C46.8 -189.5 93.7 -191.4 131.9 -172.6" fill="#ff6347"></path></g></svg>